<svg xmlns="http://www.w3.org/2000/svg" width="18" height="18" viewBox="0 0 18 18">
    <path fill="#443737" fill-rule="nonzero" d="M5.293 0C2.387 0 0 2.384 0 5.293v7.414C0 15.613 2.384 18 5.293 18h7.414C15.613 18 18 15.616 18 12.707V5.293C18 2.387 15.616 0 12.707 0H5.293zm0 1.636h7.414a3.651 3.651 0 0 1 3.657 3.657v7.414a3.651 3.651 0 0 1-3.657 3.657H5.293a3.651 3.651 0 0 1-3.657-3.657V5.293a3.651 3.651 0 0 1 3.657-3.657zm8.54 1.79a.738.738 0 0 0-.742.742c0 .412.33.741.741.741.413 0 .742-.33.742-.741a.738.738 0 0 0-.742-.742zM9 4.091C6.3 4.09 4.09 6.299 4.09 9c0 2.7 2.21 4.91 4.91 4.91S13.91 11.7 13.91 9 11.7 4.09 9 4.09zm0 1.636A3.259 3.259 0 0 1 12.273 9 3.259 3.259 0 0 1 9 12.273 3.259 3.259 0 0 1 5.727 9 3.259 3.259 0 0 1 9 5.727z"/>
</svg>
