<svg xmlns="http://www.w3.org/2000/svg" xmlns:xlink="http://www.w3.org/1999/xlink" width="61" height="41" viewBox="0 0 61 41">
    <defs>
        <path id="a" d="M.76.084h10.21v14.612H.76z"/>
    </defs>
    <g fill="none" fill-rule="evenodd">
        <path fill="#F5B619" d="M.005 21.043c.006-.076.03-.116.07-.11l.056-.536.133-.107c0-.026 0-.063-.003-.112a.317.317 0 0 0-.037-.13.355.355 0 0 1 .087-.152c.04-.037.06-.086.063-.156-.023-.01-.037-.036-.05-.063-.037-.046-.053-.083-.05-.123l.08-.175c.027.003.063.003.11.003.046-.003.073-.017.073-.043.007-.053-.067-.123-.22-.202a.779.779 0 0 1 .17-.183c.033-.023.053-.05.057-.073.003-.03-.01-.063-.04-.11-.027-.039-.07-.119-.127-.228l.02-.179a.665.665 0 0 1 .034-.136c.04-.103.06-.202.07-.292.013-.136.013-.252.003-.361a1.896 1.896 0 0 1 .01-.358l.123-.05c-.033-.066-.047-.18-.043-.335 0-.15-.004-.252-.01-.285l.13-.113c-.067-.03-.094-.086-.097-.156.003-.073.007-.122.01-.149 0-.026.036-.083.116-.159.07-.08.123-.116.15-.113-.013 0-.023 0-.03.004-.01.006-.02.006-.033.006-.093-.006-.14-.06-.147-.152a1.877 1.877 0 0 1 .004-.242c.03-.25.08-.451.153-.61.076-.16.116-.246.12-.262.003-.053-.02-.11-.074-.166-.056-.06-.08-.116-.073-.17.007-.062.02-.102.043-.112.02-.013.03-.033.034-.06.02-.182.016-.361-.004-.54a2.093 2.093 0 0 1-.01-.498c.007-.096.03-.218.054-.374.03-.156.093-.246.19-.266l-.137-.43.18.016c-.027-.027-.044-.066-.047-.123a.162.162 0 0 1-.043-.106c-.004-.04 0-.07 0-.096a.942.942 0 0 1 .02-.106.32.32 0 0 1 .066-.13.429.429 0 0 0-.026-.139c-.02-.07-.044-.11-.07-.11l.123-.042c-.01-.017-.003-.037.006-.063a.461.461 0 0 0 .04-.176c.01-.08-.013-.123-.066-.126l.123-1.207c.03-.026.043-.04.05-.036.007 0 .013-.027.02-.077l-.103-.192c.01-.08.053-.116.133-.103-.014-.003-.023-.03-.033-.083-.01-.056-.014-.116-.024-.175a1.675 1.675 0 0 1-.01-.183v-.106a.618.618 0 0 1 .19-.371.555.555 0 0 1 .37-.192c.438.043.881.072 1.337.099.449.03.808.053 1.075.083.116.01.262.036.429.08.173.046.263.142.276.291l-.13.047c-.066.03-.056.05.037.06.093.01.156.056.186.139.053.139.07.278.05.414a.668.668 0 0 0 .053.395.181.181 0 0 1-.013.112c-.017.03-.043.07-.077.123.01.027.04.047.087.066.04.017.093.044.143.077-.003.023-.007.046-.017.056a.163.163 0 0 0-.016.06.983.983 0 0 0 .083.487c.073.166.15.335.233.504.086.166.16.338.233.504.07.166.096.335.08.507a.294.294 0 0 1-.034.126c-.013.02-.07.037-.163.054l.296.03c.05.152.094.265.117.33.026.074.136.117.316.134l.027-.24c.04.007.1-.079.19-.258a9.93 9.93 0 0 1 .661-1.193c.123-.186.247-.286.37-.302l-.297-.033.007-.06c.007-.08.04-.133.097-.166a.81.81 0 0 1 .18-.086c.06-.02.122-.033.172-.05.06-.016.09-.033.093-.06 0-.03-.016-.053-.046-.076a.298.298 0 0 1-.08-.136c.043.004.07-.04.087-.122.016-.087.04-.14.066-.163 0-.03 0-.09-.013-.186-.007-.09-.01-.149-.007-.179.007.004.033-.02.073-.06.037-.042.074-.095.117-.148.036-.057.076-.11.106-.163a.273.273 0 0 0 .047-.09l-.05-.129c-.013-.053.003-.1.066-.13a.584.584 0 0 1 .23-.069c.09-.013.173-.02.253-.026.083-.004.136-.007.16-.004l2.172.22.014-.117c.076.007.113.05.106.133.316.026.516.12.602.268.09.15.13.269.117.362-.007.076-.027.116-.053.116l-.07.71c-.03.026-.047.053-.05.076a.147.147 0 0 0 .033.103.598.598 0 0 1-.05.175.472.472 0 0 0-.05.176.212.212 0 0 0 .02.093c.02.03.024.083.017.149.013.013.007.056-.023.12-.027.062-.047.129-.07.188a.68.68 0 0 0 .036.242c.03.1.044.163.044.19a.98.98 0 0 1-.064.232 2.203 2.203 0 0 1-.106.228 1.43 1.43 0 0 0 .02.405c.023.15.033.282.02.398-.007.066-.033.116-.073.142-.044.03-.067.06-.07.087-.007.066 0 .109.026.129.024.023.034.063.03.116a1.756 1.756 0 0 1-.06.275c-.033.116-.063.285-.103.507.027.03.06.093.103.19a.195.195 0 0 0-.09.122.42.42 0 0 1-.053.106c-.01.077 0 .18.03.302.03.123.037.239.027.342-.01.08-.037.129-.09.152-.047.02-.076.083-.086.192-.01.103-.014.216-.004.339.007.119.033.202.083.245-.05.239-.09.464-.116.683-.027.216-.057.448-.083.696-.03.027-.05.037-.057.037-.006 0-.01.026-.016.08-.004.023.016.046.053.066.04.016.056.056.05.122-.014.133-.06.213-.143.236-.087.023-.127.043-.127.056-.003.03.01.04.033.037.027-.004.074.026.134.083l-.087.848c.037.043.053.106.043.19-.006.059-.03.089-.07.079-.036-.01-.056-.003-.06.023a.155.155 0 0 0 .027.103c.027.03.05.06.073.09-.023.076-.05.169-.08.281-.03.11-.06.216-.083.322l-.066.292c-.027.093-.037.149-.04.175-.01.107.003.236.043.395.033.16.05.262.043.315-.006.076-.02.186-.03.325-.013.136-.04.196-.076.16a.508.508 0 0 0-.173-.074c-.027-.003-.043.017-.047.057-.003.04.02.102.07.185.053.083.11.156.173.216-.01.066-.063.156-.163.272-.096.122-.17.175-.206.169l-2.236-.222.07-.113c-.093-.02-.157-.013-.177.033-.026.043-.07.063-.136.056-.093-.013-.203-.096-.326-.265-.126-.162-.183-.298-.17-.404.024-.093.05-.176.08-.252.02-.067.043-.13.063-.203.024-.073.037-.136.044-.185l-.05-.126.066-.057.083-.849.15-.046c-.053-.02-.086-.06-.11-.123a1.094 1.094 0 0 1-.04-.411c.007-.066.014-.11.017-.14a.355.355 0 0 1 .09-.218.306.306 0 0 0 .09-.182l-.077-.067.087-.05c.02-.35.046-.573.07-.686a.366.366 0 0 0-.05-.295l.093-.11-.077-.069c-.043-.083-.023-.182.064-.302.083-.119.133-.212.14-.271.003-.057-.004-.1-.02-.126a2.652 2.652 0 0 0-.07-.107.439.439 0 0 1-.06-.169.906.906 0 0 1-.007-.258c.01-.063.027-.133.05-.196a.212.212 0 0 1 .14-.126c.006-.04-.017-.063-.07-.066l-.06-.007a.43.43 0 0 0-.256.056.265.265 0 0 0-.134.206c0 .027.007.056.024.096.016.03.023.083.016.146-.003.03-.043.043-.113.05-.076.006-.113.03-.12.07l.037.043-.326.285.05.066c-.01.093-.063.153-.166.18-.107.032-.16.082-.167.148-.003.027.007.053.02.093.017.03.02.083.017.153-.004.046-.047.076-.12.073-.073 0-.113.03-.116.08-.004.01.006.032.033.062-.033.067-.08.16-.147.285-.07.126-.143.252-.23.378-.086.123-.179.236-.282.332-.106.096-.21.14-.313.13-.093-.01-.206-.07-.336-.176-.13-.107-.2-.206-.216-.302l.07-.133c.023.043.06.07.116.083.05.013.09.02.117.02.026.003.063.007.11.003.05-.003.07-.023.073-.063-.207-.05-.37-.12-.476-.209-.113-.092-.16-.242-.136-.454a.421.421 0 0 1 .05-.186c.02-.03.1-.04.229-.026l-.04-.003a.428.428 0 0 1-.266-.14.953.953 0 0 1-.216-.288 2.385 2.385 0 0 1-.14-.335.66.66 0 0 1-.04-.285.249.249 0 0 1 .053-.103c.03-.046.063-.063.09-.06-.12-.016-.206-.06-.25-.146-.043-.086-.09-.172-.133-.255a1.268 1.268 0 0 0-.16-.222c-.063-.07-.162-.09-.299-.063.024.043.04.08.05.103.01.03.027.06.05.086-.003.04-.043.096-.133.169l.1.189c-.047.46-.08.892-.103 1.29-.02.398-.044.733-.07 1.011a1.158 1.158 0 0 1-.177.544c-.046.05-.08.09-.113.13-.003.023.064.076.203.155-.033.348-.063.56-.086.653a2.425 2.425 0 0 0-.05.299l-.013.139c-.004.046-.004.13.013.239l-.03.355c-.117.056-.173.099-.176.122-.004.04.043.07.143.086.1.017.143.083.13.203a4.433 4.433 0 0 1-.19.301c-.06.077-.133.14-.213.2-.083.056-.16.082-.24.072L.47 22.011a.358.358 0 0 1-.24-.132.89.89 0 0 1-.152-.275 1.571 1.571 0 0 1-.07-.309c-.007-.1-.01-.182-.003-.252M14.708 22.743c-.004-.053 0-.076.006-.08.007.004.027-.013.053-.04-.016.017-.043.024-.083.024-.063.003-.123-.033-.173-.1a.403.403 0 0 1-.07-.212.293.293 0 0 1 .193-.305.297.297 0 0 1-.21-.295c-.013-.026.004-.063.06-.123a.464.464 0 0 1-.053-.076c-.01-.01-.01-.05-.016-.116l.14-.066a.91.91 0 0 0-.054-.2c-.036-.102-.07-.152-.096-.152.023-.228.036-.45.043-.673.01-.215.01-.444.003-.683a.76.76 0 0 0-.046-.239c-.03-.076-.043-.232-.047-.457a.147.147 0 0 1 .083-.15c.06-.032.087-.066.087-.092-.003-.013-.06-.037-.18-.073a28.58 28.58 0 0 1-.016-.637c-.007-.238-.03-.384-.074-.437a.455.455 0 0 0 .057-.22c0-.066-.003-.139-.003-.215l-.007-.122-.007-.296-.006-.192c0-.1 0-.199.003-.308.003-.11.01-.203.013-.292.007-.083.014-.13.03-.13l-.076-.414.06-.179a.712.712 0 0 0-.04-.232.468.468 0 0 1-.034-.126l.14-.08a.69.69 0 0 1-.206-.298c-.007-.17.006-.275.033-.318.023-.04.033-.13.03-.259a.41.41 0 0 0-.013-.1 1.007 1.007 0 0 1-.01-.159c.023-.04.05-.063.076-.07.027-.01.04-.022.04-.052 0-.027-.043-.073-.123-.136-.003-.09.003-.19.01-.289.01-.1.07-.185.173-.252l-.143-.116a.488.488 0 0 1 .06-.41c.083-.127.123-.206.123-.233 0-.027-.067-.033-.2-.033l-.026-1.273c.02-.027.04-.04.053-.044.013 0 .023-.026.02-.076 0-.026-.027-.07-.073-.13a.354.354 0 0 1-.077-.225l-.003-.063c.003-.04.023-.06.063-.063-.07.007-.11-.04-.123-.122a.776.776 0 0 1-.023-.17c-.007-.159.033-.324.113-.51a.624.624 0 0 1 .376-.358c.266-.003.549-.01.855-.02.306-.007.592-.017.865-.02.27-.01.51-.016.722-.03a2.01 2.01 0 0 0 .453-.063l.14-.063v.06c.086 0 .186.01.322.033.133.023.19.047.163.076a.952.952 0 0 1 .416-.092c.106-.004.216 0 .33.003a5.452 5.452 0 0 0 .821-.037.888.888 0 0 0 .383-.162c0 .013.033.036.1.066.07.033.143.07.223.106.083.033.163.073.243.103.08.03.133.05.163.063l.13.494.043 1.814c.003.023-.03.05-.094.08l-.08.043.06.119-.113.123c-.08.076-.136.119-.176.119l-.918.027c.003.063-.014.102-.037.109-.03.007-.057.01-.08.013-.093 0-.15-.01-.173-.03-.02-.02-.066-.03-.13-.026a.768.768 0 0 0-.236.036.914.914 0 0 1-.263.04c-.076 0-.15 0-.216-.007a2.743 2.743 0 0 1-.323-.043l.064.06c-.19.046-.366.116-.533.209a.468.468 0 0 0-.253.424h.123c0 .097-.003.203-.013.329-.01.126-.013.248-.01.368.003.162.03.298.08.417.047.117.166.19.356.21l-.063.059.123.06c.396-.014.828-.02 1.288-.023.459-.004.901 0 1.327.016.027.013.06.05.097.116l.103.226c.036.086.063.169.086.258.02.086.034.146.034.19.006.115-.01.245-.05.384a1.3 1.3 0 0 0-.047.394l.06.054.02.918a.292.292 0 0 1-.13.272c-.093.06-.196.106-.316.14-.12.026-.246.046-.38.056-.132.01-.239.023-.319.036.004.083-.016.123-.056.123a.481.481 0 0 0-.29-.143 2.73 2.73 0 0 0-.412-.02c-.147.004-.31.01-.49.013-.176.004-.269.07-.266.186a.622.622 0 0 1-.25 0 .897.897 0 0 0-.229-.046l-.076.063c.04-.004.07.01.103.033.01.013.023.02.036.02 0 .083-.043.166-.136.262l.047 1.754c.133.02.256.056.362.106.11.053.237.09.386.11 0 .056.087.086.26.102.173.017.372.02.595.017.23-.007.453-.014.673-.027.216-.016.382-.02.489-.02.213-.006.372.014.492.063a.62.62 0 0 1 .253.196c.053.076.09.172.106.285.017.113.027.229.027.345.007.12.003.229.003.331a.837.837 0 0 1-.106.329c.026 0 .043.026.053.08.007.052.013.092.013.119 0 .026 0 .05-.006.08-.007.026-.043.042-.11.042.067.027.103.043.11.06.006.01.013.05.013.12.003.076 0 .175-.003.304-.004.13-.02.256-.05.382a.724.724 0 0 1-.16.328.371.371 0 0 1-.316.146l-.579.017c-.253.006-.556.016-.915.026-.363.007-.739.02-1.128.037-.396.016-.785.026-1.178.036-.386.013-.735.02-1.038.03-.28.006-.502.01-.675.016a1.78 1.78 0 0 1-.39-.023c-.083-.016-.146-.043-.18-.083a.275.275 0 0 1-.052-.159M24.481 21.775c-.01-.076.004-.116.047-.122l-.077-.534.1-.136a.702.702 0 0 0-.023-.106.347.347 0 0 0-.07-.123.324.324 0 0 1 .05-.162.253.253 0 0 0 .027-.166.163.163 0 0 1-.07-.053c-.047-.037-.07-.07-.073-.11l.03-.185a.728.728 0 0 0 .11-.027c.043-.01.066-.03.063-.056-.01-.053-.094-.1-.263-.146a.816.816 0 0 1 .123-.216c.026-.03.04-.06.036-.086-.006-.03-.026-.056-.066-.09-.037-.04-.097-.099-.173-.198l-.027-.176a.508.508 0 0 1 0-.143c.014-.11.01-.209 0-.301a2.561 2.561 0 0 0-.083-.349 1.907 1.907 0 0 1-.077-.351l.107-.076a.882.882 0 0 1-.126-.315 1.417 1.417 0 0 0-.077-.279l.1-.133a.167.167 0 0 1-.127-.135c-.02-.07-.026-.123-.03-.146-.006-.027.02-.087.077-.183.05-.093.09-.142.116-.146-.013.004-.023.007-.026.017-.007.007-.017.01-.03.013-.093.01-.15-.026-.18-.116-.02-.096-.04-.169-.05-.239a1.797 1.797 0 0 1 .004-.63c.036-.172.053-.265.05-.278-.007-.053-.044-.1-.11-.146-.067-.046-.107-.09-.113-.146-.007-.066-.004-.103.013-.12.02-.016.027-.036.023-.066a2.528 2.528 0 0 0-.136-.523 2.058 2.058 0 0 1-.127-.481 3.878 3.878 0 0 1-.033-.382c-.007-.155.03-.258.117-.295l-.233-.39.176-.024a.197.197 0 0 1-.073-.113.141.141 0 0 1-.067-.09.977.977 0 0 1-.02-.092.93.93 0 0 1-.006-.113.38.38 0 0 1 .026-.136.435.435 0 0 0-.056-.133c-.037-.063-.067-.09-.09-.086l.11-.076c-.017-.01-.02-.03-.01-.056a.446.446 0 0 0-.007-.186c-.007-.076-.043-.113-.093-.106l-.17-1.2c.023-.03.037-.047.043-.047.007-.003.004-.03-.003-.08l-.143-.159c-.01-.08.023-.126.103-.136-.013.004-.03-.023-.05-.076a1.083 1.083 0 0 1-.06-.156 2.197 2.197 0 0 1-.06-.175c-.013-.06-.023-.093-.026-.107a.64.64 0 0 1 .096-.404.578.578 0 0 1 .313-.275c.436-.063.878-.136 1.324-.22.443-.079.799-.138 1.062-.178.12-.013.266-.02.442-.017.177.004.283.073.33.212l-.11.077c-.06.05-.043.066.05.053.093-.014.163.016.213.09a.771.771 0 0 1 .143.394.72.72 0 0 0 .146.368c.017.043.023.076.013.11-.006.036-.02.079-.04.139.017.023.05.036.1.046.047.007.097.02.157.036.003.027.003.047-.004.06a.197.197 0 0 0 0 .063.905.905 0 0 0 .197.451c.106.15.226.292.346.438.123.14.236.288.342.43.11.15.177.306.203.478.007.063.007.11-.003.13-.01.02-.063.05-.146.09l.296-.044.19.298c.046.063.16.08.342.054l-.033-.24c.04-.003.08-.102.12-.294.04-.193.093-.411.15-.647.066-.235.13-.457.212-.67.074-.209.173-.338.29-.384l-.296.043-.01-.06a.214.214 0 0 1 .053-.189c.05-.043.1-.086.156-.123.054-.03.107-.063.157-.09.053-.029.076-.055.07-.079-.004-.026-.024-.05-.06-.063-.037-.016-.07-.056-.107-.116.04-.006.053-.05.05-.139-.006-.09.003-.143.027-.172a1.288 1.288 0 0 0-.053-.173.814.814 0 0 1-.054-.176c.014 0 .034-.026.057-.08.026-.046.05-.105.08-.172.023-.06.046-.119.063-.175a.638.638 0 0 0 .027-.106l-.077-.11c-.033-.046-.023-.096.03-.146a.803.803 0 0 1 .206-.12c.083-.032.163-.055.24-.082.076-.023.133-.036.156-.04l2.16-.302-.017-.119c.077-.013.123.023.136.1.316-.044.533-.004.653.122.116.123.183.232.196.322.013.083.003.123-.023.126l.1.71c-.024.03-.034.056-.03.082.006.04.023.07.056.093a.55.55 0 0 1-.007.183.55.55 0 0 0-.006.182c.006.026.02.053.043.083a.26.26 0 0 1 .05.146c.016.01.02.05.007.116-.01.07-.017.14-.02.205a.66.66 0 0 0 .093.232c.053.083.08.14.083.163.007.07.007.15-.007.249-.013.09-.026.175-.043.245.017.116.053.245.113.385.06.136.097.265.113.384a.175.175 0 0 1-.036.156c-.034.04-.05.073-.047.096.01.067.027.106.057.126.03.014.046.047.056.103.01.063.01.16.01.279-.006.119 0 .291.02.517.03.023.08.076.147.162-.04.033-.06.077-.064.14-.006.06-.013.1-.026.112.013.08.046.176.1.289.056.11.096.219.113.328.006.076-.007.133-.054.166-.04.033-.053.1-.04.205.017.107.044.216.077.332.04.116.083.186.143.222.007.236.023.468.043.687.024.215.057.45.093.702a.195.195 0 0 1-.046.044c-.007 0-.007.026.003.08.004.029.027.046.067.052.04.004.066.043.076.11.02.129-.01.215-.083.262-.076.043-.113.07-.113.082.003.03.02.037.043.027.03-.01.08.007.15.05l.12.849c.046.03.076.09.086.165.01.067-.006.1-.046.1-.044 0-.06.013-.06.036.006.04.026.073.056.096.03.02.06.04.09.067l-.01.292c-.003.112-.006.222-.003.331 0 .11.003.206 0 .302 0 .093.003.152.007.179.013.106.06.232.133.371.076.143.116.246.123.295.01.08.026.19.046.325.02.14.007.2-.036.18a.441.441 0 0 0-.187-.037c-.026.003-.04.026-.033.066.007.037.047.093.113.163.073.073.147.126.22.172.01.066-.02.166-.09.302-.067.14-.123.205-.166.212l-2.226.312.043-.126c-.093 0-.146.026-.163.073-.013.05-.05.076-.12.09-.09.013-.216-.047-.376-.18-.163-.13-.25-.248-.266-.351.003-.1.01-.186.027-.269l.01-.212c.003-.073 0-.136-.004-.189l-.08-.113.05-.066-.116-.846.13-.08a.163.163 0 0 1-.133-.089.827.827 0 0 1-.09-.189 1.211 1.211 0 0 1-.047-.205 1.758 1.758 0 0 0-.023-.136.35.35 0 0 1 .043-.239.321.321 0 0 0 .04-.196l-.087-.05.067-.069c-.057-.338-.093-.567-.093-.68a.364.364 0 0 0-.12-.272l.06-.132-.083-.047c-.063-.07-.07-.175-.017-.311.057-.133.083-.236.073-.299a.222.222 0 0 0-.05-.116c-.023-.02-.056-.053-.09-.086a.493.493 0 0 1-.106-.15.92.92 0 0 1-.063-.251.573.573 0 0 1 .003-.2c.01-.066.05-.119.107-.152-.007-.043-.034-.06-.083-.05l-.064.01a.383.383 0 0 0-.233.11.27.27 0 0 0-.08.229c.004.03.02.06.044.09.026.03.043.075.053.142.003.026-.033.053-.103.073-.07.023-.103.056-.097.096l.047.033-.253.358.067.05c.013.093-.027.162-.117.219-.093.05-.136.11-.13.172.007.03.02.06.047.09.02.033.037.076.047.142.01.053-.027.086-.094.106-.073.014-.103.053-.096.1.003.013.02.033.047.053-.017.07-.04.176-.077.315-.033.14-.077.282-.13.421a1.77 1.77 0 0 1-.196.388c-.077.12-.17.182-.273.196-.093.016-.216-.017-.363-.087-.153-.073-.246-.152-.289-.242l.043-.146c.027.037.07.053.13.05.05 0 .09-.003.116-.003.03-.007.06-.01.107-.023.046-.017.066-.043.06-.08a1.18 1.18 0 0 1-.516-.09c-.133-.062-.213-.202-.24-.407-.016-.096-.013-.156.004-.193.013-.036.086-.06.22-.083l-.04.007a.424.424 0 0 1-.293-.07c-.103-.06-.2-.139-.28-.232a2.352 2.352 0 0 1-.216-.291.68.68 0 0 1-.107-.266.208.208 0 0 1 .027-.112c.02-.053.047-.08.073-.087-.12.02-.21-.01-.276-.076-.063-.073-.13-.146-.19-.219-.07-.07-.136-.129-.212-.179-.074-.053-.173-.046-.3.013.03.034.053.063.073.09.017.023.04.046.07.07.003.04-.026.106-.093.192l.143.162c.063.461.133.89.21 1.28.073.388.133.72.17.998.02.143.023.262.006.349-.013.09-.027.162-.047.218-.03.06-.06.11-.08.15.004.026.084.066.24.112.047.342.07.557.067.654.003.09.01.189.023.298.007.036.013.083.023.136a.92.92 0 0 0 .07.232l.05.351c-.093.083-.143.133-.14.163.007.04.057.053.16.05.1-.01.16.05.17.165-.034.123-.07.236-.11.335a.9.9 0 0 1-.16.242.335.335 0 0 1-.21.133l-2.512.352a.339.339 0 0 1-.262-.077.882.882 0 0 1-.213-.229 1.133 1.133 0 0 1-.14-.285 1.12 1.12 0 0 1-.067-.242M41.842 16.355c.107.04.22.046.34.013.206-.056.316-.219.326-.49a2.8 2.8 0 0 0-.097-.846c-.016-.067-.06-.156-.116-.279a.822.822 0 0 1-.067-.166l.014-.192-.01-.036c-.007-.01-.014-.05-.03-.107a.7.7 0 0 0-.063-.169 1.638 1.638 0 0 1-.1-.228l.036-.073a.174.174 0 0 0 .064-.08c.05-.08.073-.126.066-.143l-.293.08c-.02-.09 0-.14.054-.156.063-.016.083-.036.08-.066a.282.282 0 0 0-.1-.136.232.232 0 0 1-.094-.12l.084-.145a1.09 1.09 0 0 0-.163-.143l-.12-.458c.063-.072.09-.132.08-.169-.014-.05-.054-.086-.12-.102-.067-.014-.11-.05-.12-.103-.017-.063-.007-.096.033-.1.04-.003.06-.02.05-.046 0-.013-.016-.047-.04-.11a.52.52 0 0 0-.093-.162l.027-.13c.006-.03 0-.056-.023-.086-.02-.03-.077-.09-.167-.172l.08-.146c-.007-.04-.033-.066-.083-.09a.157.157 0 0 1-.09-.109l.083-.146a.587.587 0 0 1-.133-.152.403.403 0 0 1-.056-.106l.04-.077-.223-.842c-.054-.14-.057-.225-.007-.258.046-.034.063-.07.053-.107-.01-.036-.096-.102-.26-.198l.044-.073c-.07-.007-.18-.073-.326-.193-.143-.12-.22-.205-.233-.255l-.15.143-.03-.097-.33.087c0-.014-.026.03-.06.119-.04.09-.082.196-.126.312-.05.112-.113.265-.203.457l.15.574c-.023.006-.033.04-.026.09.01.052.016.109.013.172.003.06 0 .126-.01.189s-.053.11-.127.146l.037-.014c.107-.026.193.03.263.173.07.136.12.245.136.321.01.024 0 .09-.013.19a.779.779 0 0 0-.007.188l.147.083.226.866c-.037.013-.086.066-.14.162.13.033.207.086.23.166.017.063.01.13-.023.192a.404.404 0 0 1-.137.156.225.225 0 0 0 .057-.023.19.19 0 0 1 .073-.03c.07-.016.11 0 .123.05-.08.02-.11.07-.086.146l.173.202c.056.096.06.196.013.302-.047.113-.063.199-.047.262.007.023.02.04.044.04.02.003.043.003.06.003a.15.15 0 0 1 .073.036c.026.017.05.057.056.103.017.07.017.16.004.279-.017.119-.027.218-.037.288l.126.01.137.514a.299.299 0 0 1 .096.13c.034.069.063.149.087.238l.06.272c.013.076.023.133.03.16l.811.215zm-.622 3.269l.044-.07c-.187.024-.38.034-.58.03a8.535 8.535 0 0 1-.588-.03.48.48 0 0 0-.22-.192.413.413 0 0 0-.273-.03l.027-.132c-.01-.024-.077-.053-.213-.097a2 2 0 0 1-.25-.086c-.03-.02-.066-.08-.116-.176-.05-.096-.117-.132-.203-.109l-.093-.348-.037.01c-.076.02-.156-.023-.233-.136a.87.87 0 0 1-.143-.262l.027-.13-.127-.026c-.016-.05-.02-.076-.013-.08.007 0 .02-.016.04-.053-.027.007-.05-.006-.067-.04a.368.368 0 0 1-.033-.095c-.003-.027-.013-.06-.016-.107-.007-.05.01-.076.046-.086l.04-.01a.714.714 0 0 1-.203-.02c-.033-.01-.063-.063-.09-.152a.62.62 0 0 1-.026-.146c-.007-.033.026-.076.083-.113l-.147-.09-.153-.573c-.056.013-.09-.02-.11-.096a.927.927 0 0 1-.036-.182.19.19 0 0 1 .01-.09.192.192 0 0 1 .04-.07c.016-.026.046-.063.07-.112-.007.016-.03.03-.067.04-.066.016-.12-.004-.15-.054a.479.479 0 0 1-.07-.136l.177-.046a.165.165 0 0 1-.097-.007c-.036-.01-.07-.013-.093-.003a.958.958 0 0 1-.03-.295.268.268 0 0 1 .137-.229l-.23.06c-.033-.017-.036-.06-.013-.12a.973.973 0 0 0 .053-.198l-.146-.087c-.034-.129-.07-.255-.1-.374a1.231 1.231 0 0 1-.04-.388c-.077-.01-.113-.05-.127-.113-.01-.066-.03-.113-.063-.126a.465.465 0 0 1 .163-.12c.057-.02.08-.043.077-.07-.007-.026-.087-.045-.243-.059l-.047-.169a1.923 1.923 0 0 0-.053-.44c-.046-.17-.1-.286-.166-.359a.446.446 0 0 1-.123-.182c-.004-.014-.007-.027 0-.043.003-.014 0-.027 0-.04l-.007-.02a.667.667 0 0 1-.02-.302.793.793 0 0 0-.03-.345l-.07-.043a.272.272 0 0 1-.013-.149.212.212 0 0 0 .01-.1c-.02-.06-.033-.106-.053-.139a.558.558 0 0 0-.084-.13c-.05-.178-.06-.317-.036-.404.026-.086.06-.185.1-.291-.1-.004-.163-.043-.2-.133a1.24 1.24 0 0 1-.08-.225 4.373 4.373 0 0 1-.13-.942c-.016-.378.07-.68.253-.922l-.073-.043c-.013.007-.027-.007-.033-.033-.017-.08.043-.196.186-.358.143-.163.306-.325.493-.491.18-.166.422-.375.725-.633l-.07-.043c.14-.09.32-.2.532-.315.22-.12.423-.206.62-.256.126-.036.289-.076.488-.13.203-.052.406-.105.62-.162.209-.056.419-.106.628-.149.21-.04.4-.06.562-.063a.513.513 0 0 0 .277.06c.1-.007.186-.017.246-.037l.033.12c.14-.04.253-.02.336.056.08.073.177.143.29.209a.414.414 0 0 0 .256.053c.086-.007.146.01.186.056.353.276.679.64.995 1.095.313.457.532.921.662 1.412.04.14.04.302.007.481-.037.179-.037.328-.007.444a.15.15 0 0 0 .057-.026c.01-.01.026-.017.053-.023.027-.007.073.006.136.046.007.023-.003.07-.023.13-.027.066-.04.102-.03.132.013.053.047.1.097.136.056.043.09.096.103.159l-.083.146c.033.02.07.043.1.07.033.02.063.066.08.132a.55.55 0 0 1 .016.176.57.57 0 0 0 .013.182c.027.093.05.146.073.16a.09.09 0 0 1 .05.06.346.346 0 0 1 .01.148.196.196 0 0 0-.006.097c.016.076.05.109.086.102a.97.97 0 0 0 .03.176.52.52 0 0 0 .097.219c.043.046.076.133.11.259-.024.02-.037.07-.054.139-.016.073-.036.12-.06.139.083.046.133.093.153.146a1.144 1.144 0 0 1 .097.438c0 .086.013.179.04.265.043.166.12.335.226.504.11.176.173.295.193.375.03.099.023.175-.013.228-.034.053-.04.113-.02.193.013.05.03.086.05.106-.024.01-.024.053.006.136.03.083.034.139.014.172.026.047.05.116.076.206.023.1.027.189.007.262-.024.08-.067.169-.13.285l.19.01c.023.09.026.192.02.305a.918.918 0 0 0 .023.341l-.406.11-.037.07.403-.107a.688.688 0 0 1 .03.236.34.34 0 0 1-.04.149.679.679 0 0 1-.087.113.988.988 0 0 0-.1.169l.22.13c-.056.046-.116.085-.176.138a.699.699 0 0 0-.163.2l.126.026c.027.09-.016.202-.123.341-.106.14-.233.276-.38.412a4.908 4.908 0 0 1-.442.36c-.15.11-.25.17-.302.183.003.014.006.024.02.027.006.006.01.016.016.03.01.033-.006.063-.05.08-.046.02-.093.042-.143.059a.489.489 0 0 0-.133.08c-.043.03-.053.063-.046.102l.006.02c-.086.05-.183.093-.293.14a2.78 2.78 0 0 1-.346.109c-.359.096-.715.189-1.054.278a8.167 8.167 0 0 1-1.078.206l-.014-.063zM46.98 8.609a.405.405 0 0 1-.017-.245c.017-.093.04-.19.067-.289.023-.103.043-.209.06-.322a.685.685 0 0 0-.034-.334c.027-.037-.006-.083-.103-.133a2.196 2.196 0 0 0-.346-.14 3.882 3.882 0 0 0-.396-.102c-.133-.023-.203-.03-.216-.023.056-.093.06-.222.02-.392a4.921 4.921 0 0 0-.153-.514l-.173-.47a3.707 3.707 0 0 1-.087-.295 1.161 1.161 0 0 0-.066-.243 1.609 1.609 0 0 0-.18-.331l-.196-.418.01-.385a.744.744 0 0 1 .28-.185c.142-.067.295-.126.475-.193.423-.155.762-.268 1.018-.344.253-.08.45-.13.58-.16.132-.026.222-.026.275 0a.162.162 0 0 1 .11.16c0 .02.007.043.013.07.03.076.07.102.12.085.01-.006.02-.01.023-.023.004-.006.014-.013.027-.02.063.18.097.286.103.322.007.04.014.096.007.17.04-.014.076.016.11.099.04.073.073.122.11.139.006.026.016.086.026.179.017.093.027.152.037.179-.01.06.04.179.14.361a3 3 0 0 1 .226.481c.016.05.053.19.103.415.046.228.08.454.103.673l-.226.083c.073 0 .12.013.136.046a.68.68 0 0 1 .057.133c.036.102.01.199-.087.285l.077.04c.053.136.053.238.01.315a3.64 3.64 0 0 0-.13.232 5.652 5.652 0 0 0-.13.514.568.568 0 0 1-.09.242.57.57 0 0 1-.24.172l-.578.295c-.03.04-.063.09-.107.153-.04.063-.076.103-.116.116-.027.01-.07-.003-.14-.033a1.314 1.314 0 0 1-.21-.113 3.108 3.108 0 0 1-.202-.14.37.37 0 0 1-.1-.112"/>
        <g transform="translate(49.91 .022)">
            <mask id="b" fill="#fff">
                <use xlink:href="#a"/>
            </mask>
            <path fill="#F5B619" d="M6.92 14.519c-.19.066-.387.113-.593.152-.2.034-.39.034-.57-.003a.48.48 0 0 1-.365-.272c-.033-.073 0-.142.096-.219a.778.778 0 0 1 .157-.092c-.034-.03-.063-.04-.113-.024-.044.014-.087.027-.133.037a1.08 1.08 0 0 1-.134.03c-.043.003-.073-.02-.093-.07a.57.57 0 0 1-.07-.288.42.42 0 0 0-.046-.246l-.05-.11a.369.369 0 0 0 .17-.208c-.024.01-.084.026-.163.053-.087.023-.147-.007-.187-.09.027-.043.047-.09.07-.142.013-.033.027-.07.05-.096a.528.528 0 0 0 .053-.106.66.66 0 0 1-.246.063c-.083-.004-.143-.047-.18-.13l.217-.1c-.037-.082-.1-.125-.187-.122-.09.003-.156-.05-.206-.159a.638.638 0 0 1-.05-.279c.007-.063.017-.109.037-.132.02-.02.04-.047.066-.07.027-.026.043-.076.05-.156l.765-.345a.66.66 0 0 0 .51-.04c.013.037.016.07.003.107-.013.04-.027.076-.04.106l1.47-.67c.04-.106.077-.196.117-.272.04-.073.07-.146.09-.205.023-.063.03-.106.02-.13-.007-.013-.017-.013-.03-.006l-.033.013c-.067-.143-.11-.255-.14-.328a.638.638 0 0 0-.093-.18.607.607 0 0 0-.117-.109c-.04-.033-.123-.076-.24-.142l-.186-.113c-.01-.027-.06-.05-.143-.08-.086-.023-.136-.053-.156-.093l.013-.023a1.468 1.468 0 0 1-.323-.007c-.073-.013-.136-.023-.203-.036-.063-.013-.103-.036-.113-.06-.006-.013-.01-.033-.006-.063 0-.056-.007-.099-.017-.126l-.163.077c-.037-.083-.133-.136-.28-.16a.493.493 0 0 1-.352-.208c-.063-.073-.14-.08-.233-.01-.097.06-.186.08-.276.046l-.503-.232c-.02-.046-.013-.103.024-.166.043-.06.05-.083.023-.073.013-.003-.027.024-.11.096-.1.07-.2.077-.3.017a1.42 1.42 0 0 1-.289-.242c-.086-.1-.17-.189-.243-.272-.076-.08-.136-.113-.186-.09l-.037.014-.046-.106-.11-.083-.02-.053-.27-.01.034-.216a.475.475 0 0 0-.193-.205.458.458 0 0 1-.196-.21c-.04-.079-.027-.132.033-.142.06-.013.07-.06.033-.146-.183.083-.306.053-.376-.092-.013-.037-.003-.107.037-.213a.4.4 0 0 0-.13-.093c-.037-.013-.07-.05-.097-.109-.036-.086-.016-.182.064-.292-.057.023-.1.043-.13.047-.027.006-.053-.024-.08-.083a.302.302 0 0 1-.017-.246c.034-.08.03-.149.004-.208-.03-.063-.057-.093-.083-.103-.024-.01-.06-.06-.097-.14A.87.87 0 0 1 1 4.704a.838.838 0 0 0-.083-.321c.006-.017-.01-.044-.044-.077-.04-.033-.076-.076-.113-.112a.85.85 0 0 1 .02-.2c.02-.086.04-.178.067-.268.023-.09.053-.176.093-.249a.313.313 0 0 1 .11-.142l.036-.013C.983 3.278.92 3.245.903 3.209c.07-.196.133-.358.187-.484.053-.123.153-.272.312-.445L1.3 2.197c.217-.102.413-.268.586-.5a1.6 1.6 0 0 1 .595-.5c.17-.08.35-.167.54-.27.15-.086.322-.172.509-.268.193-.093.376-.18.545-.259.4-.179.702-.285.922-.311.21-.024.446.01.692.102l-.033.077c.056.106.106.202.163.278.06.08.103.16.143.239.026.063.056.14.076.242.027.1-.02.17-.126.222a.57.57 0 0 0 .163.023c.076.004.12.017.13.04l.519 1.14a.427.427 0 0 0-.093.22c-.007.073-.02.146-.034.209a.47.47 0 0 1-.3.358c-.132.06-.295.119-.495.182a.72.72 0 0 1-.552-.03l-.656.295c.044.1.05.173.017.226-.037.05-.073.11-.117.175a.499.499 0 0 0-.086.246c-.013.096.027.245.113.44.037.01.093.044.17.097.073.053.166.11.273.17.11.059.233.115.369.158.14.047.293.077.46.09.002.013.006.023.002.033-.003.007-.003.013.004.026.03.063.096.11.206.136.11.034.23.053.36.067.13.013.246.03.349.05.106.013.166.05.19.099l-.004.13c.133-.06.293-.05.483.022.186.073.372.17.559.282.18.113.346.216.492.309.146.096.25.132.306.102-.01.03-.033.083-.063.15-.027.063-.053.1-.077.11l.38-.173a.853.853 0 0 0-.037.182.391.391 0 0 0-.003.166l.026.05.037-.017c.12-.05.25-.01.38.133.132.146.222.265.262.364.03.057.007.11-.07.153-.076.04-.126.066-.153.076l.463-.01c-.04.017-.044.063-.007.136.01.02.023.047.04.066.017.024.056.02.12-.006-.014.033-.01.073 0 .13.016.046.03.085.04.109.053.109.103.202.163.278.06.076.1.15.136.222.04.086.073.176.1.269.03.1-.01.14-.117.132l.027.054a.335.335 0 0 1 .173-.034c.05.004.093.034.123.097.027.06.027.102-.006.135-.034.027-.034.073-.007.133a.233.233 0 0 0 .063.066c.037.02.067.063.093.123l-.06.16c.03.059.06.099.094.122.026.023.05.046.06.07.016.036.01.082-.02.142a.93.93 0 0 1-.28.302c-.057.04-.096.063-.12.076a.831.831 0 0 1 .24-.076c.076-.013.136.036.186.146.043.083.03.14-.033.166a.185.185 0 0 1-.077.016l.103.083c.074-.003.07.02-.01.08-.073.056-.093.129-.053.209l.017.189-.253.447c.03.07.013.176-.053.312a2.387 2.387 0 0 1-.276.398 4.165 4.165 0 0 1-.366.361c-.124.106-.223.18-.297.212a.11.11 0 0 0 .05.053.163.163 0 0 1 .044.06c.016.023-.027.06-.12.12a5.21 5.21 0 0 1-.33.182c-.133.066-.262.132-.399.192-.13.063-.236.11-.326.15l-.03.079-1.031.47-.137-.003a5.012 5.012 0 0 1-.429.163" mask="url(#b)"/>
        </g>
        <path fill="#F5B619" d="M10.328 40.5a.45.45 0 0 0-.034-.112c-.026-.063-.05-.126-.08-.196a5.35 5.35 0 0 0-.15-.308.338.338 0 0 0 .184-.196c.02-.086.036-.175.043-.265.007-.096.02-.182.037-.258.02-.08.07-.15.153-.213a.494.494 0 0 1-.107-.016c-.05-.01-.073-.047-.066-.113-.014-.026.01-.063.066-.116l-.053-.123.066-.056a33.223 33.223 0 0 1-.06-.53 2.943 2.943 0 0 1 0-.488c.014-.186.044-.328.097-.424a.672.672 0 0 0 .077-.455.433.433 0 0 0-.107-.192.864.864 0 0 1 .053-.279.684.684 0 0 0 .06-.252.635.635 0 0 0-.063-.308l.08-.288a.19.19 0 0 1 .033-.12.182.182 0 0 0 .037-.12c.003-.036-.014-.075-.054-.122.007-.076.017-.166.027-.255.013-.093.023-.192.03-.299a1.507 1.507 0 0 0-.05-.52l.067-.113c.036-.132.043-.285.02-.46a2.633 2.633 0 0 1-.017-.541c.007-.116.037-.242.08-.382.05-.135.076-.261.086-.38l-.043-.246c-.027-.053-.017-.166.03-.335.043-.173.07-.358.083-.554-.003-.026 0-.1 0-.209 0-.112-.006-.232-.016-.348a2.013 2.013 0 0 0-.064-.325c-.026-.093-.063-.142-.1-.146l-1.433-.086c-.014-.026-.024-.063-.037-.1a.726.726 0 0 1-.007-.202l.004-.06c.006-.036-.037-.062-.114-.066.004-.066.007-.139.014-.219.003-.08-.014-.126-.053-.139.003-.083.05-.159.133-.232l-.054-.063.024-.418.063-.06c-.063-.03-.08-.102-.057-.228.027-.126.034-.19.02-.192l.18.013c-.027-.004-.067-.037-.11-.106-.05-.07-.09-.116-.11-.146a.34.34 0 0 1 .037-.16.46.46 0 0 0 .043-.195c.004-.066-.003-.106-.023-.123-.02-.013-.03-.053-.027-.119.004-.027.03-.066.083-.123a1.377 1.377 0 0 1 .376-.318c.08-.043.134-.06.173-.056.054-.027.16-.037.317-.034.15.004.316.01.509.024.475.026.845.056 1.114.086.263.026.46.053.593.073.133.023.23.04.286.056.06.02.126.03.19.033l.182-.05c.09-.006.14.024.133.09-.003.066.03.1.094.103.023.03.056.026.093-.013.033-.04.066-.067.096-.093.047.04.113.066.193.07.08.006.173.01.28.02l-.057-.064.063-.056c.03-.027.114-.033.247-.03.09.007.193.017.312.033.12.014.247.027.383.033.133.007.256.014.376.014s.226.006.323.01c.116.006.186.02.216.05a.466.466 0 0 1-.11.112.308.308 0 0 1-.083.056c.106.007.213.03.316.07.103.04.156.086.153.136a.295.295 0 0 1-.05.11c-.026.043-.053.062-.08.062l.074.047c.066.043.1.07.096.083l-.063 1.077c-.013.17-.09.252-.236.242-.04-.003-.067-.01-.08-.026l.113.126.123-.053c-.013.013-.02.036-.023.063-.004.053.023.096.07.142a.783.783 0 0 1 .116.107.24.24 0 0 0-.133.142 1.078 1.078 0 0 0-.027.335c.004.046.007.083.004.11a.353.353 0 0 0-.197.08c-.05.042-.1.089-.16.125a1.035 1.035 0 0 1-.182.123.542.542 0 0 1-.267.043l.007-.08c.003-.066-.013-.096-.053-.103-.07-.003-.113.017-.143.06a.313.313 0 0 0-.047.106 1.962 1.962 0 0 0-.3-.036.609.609 0 0 0-.309.06c-.093.05-.153.145-.193.288l.057.123c-.01.146-.02.248-.03.308-.01.06-.033.133-.063.225-.014.186-.004.365.026.541.03.172.037.355.027.54-.007.143-.03.276-.063.385-.03.11-.053.232-.063.365-.004.09 0 .156.01.199-.014.023-.03.043-.044.046-.013.007-.023.013-.023.027 0 .013.007.023.02.023.013.003.027.003.04.013.013.007.03.01.06.013l-.014.176-.073.236-.08 1.293c.034.07.054.13.05.182-.003.027-.023.056-.066.086-.04.027-.063.08-.067.143-.02.268-.023.587-.02.965.004.381.01.716.02 1.011-.056.05-.086.12-.093.216 0 .023 0 .056.003.096.007.043.007.073.007.1-.113.006-.166.032-.166.072-.004.023.023.053.073.093.053.037.076.08.073.133-.007.07-.017.102-.037.116-.023.013-.033.033-.036.06a.768.768 0 0 0 .043.291.598.598 0 0 1 .047.252c-.044.04-.067.076-.07.123-.003.05-.007.103-.01.172l-.003.057a.896.896 0 0 0 .04.361.822.822 0 0 1 .043.299l-.137.238c-.003.027 0 .06.004.106.003.05.02.09.043.133-.017.027-.027.046-.043.056-.03.037-.057.057-.087.057.027.03.04.043.047.043.01 0 .013.026.006.08l-.25.225c-.042.023-.176.026-.402.026-.23-.01-.479-.02-.752-.04-.27-.013-.535-.03-.795-.046-.256-.016-.433-.026-.526-.033a3.858 3.858 0 0 1-.24-.043c-.132-.027-.212-.043-.235-.043M21.167 34.983c.003.093.063.166.176.212.117.047.22.073.313.067.097 0 .2-.034.316-.09.117-.056.177-.13.173-.225a2.61 2.61 0 0 0-.056-.448 1.992 1.992 0 0 1-.04-.524l.116-.126a.319.319 0 0 1-.17-.189 1.481 1.481 0 0 1-.063-.275 1.277 1.277 0 0 0-.043-.252c-.026-.07-.073-.113-.14-.123l.06-.063a1.805 1.805 0 0 0-.076-.444 1.7 1.7 0 0 1-.08-.468l-.36.017.184.053c-.05.106-.094.275-.13.5-.037.233-.073.475-.103.743-.03.266-.054.547-.067.84a8.13 8.13 0 0 0-.01.795zm-3.52 5.21l-.12.006-.007-.2c0-.052.01-.095.027-.128.02-.034.067-.07.146-.1a.223.223 0 0 0-.113-.05c-.05-.013-.07-.053-.073-.116.013.007.027.014.04.014l.083-.004c.077-.003.117-.03.113-.083 0-.026-.023-.043-.07-.05-.046-.003-.083-.006-.113-.003a.81.81 0 0 1 .07-.351.68.68 0 0 1 .21-.279l-.123-.053c-.02-.172.003-.328.06-.48.04-.07.076-.127.116-.183l-.083-.056.113-.063c-.063-.024-.103-.06-.113-.096a.679.679 0 0 1-.013-.156c-.007-.15.04-.252.136-.319.1-.063.146-.139.14-.232l-.12-.056c-.033-.16-.027-.262.027-.308a.578.578 0 0 0 .133-.236l-.123-.05a4.21 4.21 0 0 1 .083-.961c.066-.335.1-.627.086-.882a.26.26 0 0 0-.036-.15.305.305 0 0 1-.034-.082c0-.043.007-.123.024-.242.013-.12.04-.246.066-.375.027-.123.057-.235.083-.338.034-.103.064-.15.104-.153l.063.057c.013-.093-.01-.14-.063-.136-.05 0-.08-.014-.08-.04-.004-.066.02-.11.063-.13.046-.02.066-.06.066-.116l-.136.07a.225.225 0 0 0 .073-.133c.01-.063.014-.122.014-.189a.89.89 0 0 0-.017-.129.341.341 0 0 1-.013-.09.296.296 0 0 1 .143-.155.612.612 0 0 1 .21-.06c-.01.017-.034.023-.06.023-.037.004-.07-.023-.104-.073a.714.714 0 0 1-.066-.179.728.728 0 0 1-.024-.185c-.003-.06-.006-.097-.003-.113-.007-.023.02-.063.063-.11.044-.05.08-.076.107-.076l-.123-.053c-.067-.026-.103-.07-.103-.132-.004-.07.04-.136.13-.21.092-.069.136-.115.136-.142a.56.56 0 0 0-.04-.186.594.594 0 0 1-.033-.189c-.007-.056.006-.149.03-.281.016-.133.04-.276.07-.432.026-.152.06-.295.092-.42a.95.95 0 0 1 .114-.273l-.07-.175a.935.935 0 0 1 .07-.55c.08-.183.12-.332.113-.452a.28.28 0 0 0-.107-.218l.117-.063a.605.605 0 0 0-.037-.21.508.508 0 0 1-.04-.205c0-.053.014-.093.047-.11a.194.194 0 0 1 .096-.036c.034.003.07 0 .1-.003.033 0 .05-.013.05-.043-.003-.063-.03-.1-.073-.106-.047-.004-.087-.007-.113-.004-.007-.159.08-.272.253-.338.163-.063.432-.106.791-.123.333-.01.72-.02 1.165-.023.446-.003.868-.013 1.268-.023.12-.007.233-.01.34-.013.109-.007.209-.017.318-.033.107-.007.217.056.327.195.113.136.17.239.173.302.013.01.01.046-.007.1-.02.052-.033.099-.047.142l.127.113c0 .03.003.093.016.195a4.564 4.564 0 0 0 .117.693c.03.12.06.206.093.256 0 .07-.01.122-.027.152-.02.033-.03.063-.026.09.013.345.1.673.253.988.16.312.25.62.26.925.003.04 0 .083-.007.13-.004.046-.017.069-.047.069l.12.056.156.833c.033.208.067.407.097.593.036.182.056.292.056.315l.007.239-.057.06.12-.004c.013 0 .057.176.12.524.066.348.136.743.216 1.187.077.441.146.862.216 1.267.07.401.113.656.127.76.016.069.013.105-.014.122-.023.013-.036.053-.033.12.007.095.024.211.063.357.04.146.08.302.127.471.046.17.093.345.13.514.04.172.063.322.066.454-.013.027-.02.053-.013.08-.027.043-.05.06-.06.063l.14.053a.51.51 0 0 0 .02.209c.023.103.056.209.096.325.033.12.07.232.1.348.03.11.047.189.047.242l.03.219-.057.086c-.04.036-.103.06-.196.063a.527.527 0 0 0-.18.027l-2.732.102c-.04.004-.083-.033-.136-.112a1.796 1.796 0 0 1-.22-.57c-.023-.104-.04-.176-.04-.216 0-.027.004-.057.007-.09.007-.033.037-.05.087-.056.013.003.023.003.033.013.006.007.023.007.05.007-.027-.027-.077-.043-.143-.057-.07-.01-.1-.05-.104-.116a5.425 5.425 0 0 1-.093-.321 1.76 1.76 0 0 0-.113-.315.501.501 0 0 0-.186-.232.537.537 0 0 0-.323-.08.528.528 0 0 0-.326.136.523.523 0 0 1-.326.13c-.087.162-.14.337-.156.533-.02.192-.03.378-.04.557a2.251 2.251 0 0 1-.064.484c-.033.14-.11.232-.226.275l-.056.123-.356.07-.057.122c-.037.004-.1-.033-.183-.112l-1.158.046a.793.793 0 0 1-.246.057c-.103.01-.183.016-.25.02.01 0-.023.003-.113.013a.77.77 0 0 1-.592-.196c-.1-.083-.146-.215-.156-.401l.053-.123zM31.286 28.727c-.004-.026-.02-.036-.047-.033l-.013.04.003.043c-.143.043-.27.113-.383.202a.53.53 0 0 0-.196.378l.077.537c.116.836.332 1.237.632 1.194.156-.023.246-.06.26-.106.01-.047.08-.116.199-.202.176-.103.273-.213.3-.332.02-.116.026-.242.003-.371l-.037-.256a1.095 1.095 0 0 1-.01-.232.31.31 0 0 1 .09-.205c-.156.026-.25-.06-.28-.262l.104-.133c-.027.003-.1.01-.23.013-.126.007-.196-.04-.213-.132-.01-.067.01-.096.05-.093.037 0 .053-.033.047-.103-.054.01-.11.017-.17.027-.06.01-.12.026-.183.046l-.003-.02zm.579 7.878c.09.01.183.024.272.04.09.014.187.017.273 0a.465.465 0 0 0 .25-.096c.063-.046.11-.103.16-.16.046-.062.093-.122.146-.185.05-.06.12-.11.21-.149l-.077-.11a1.302 1.302 0 0 1-.01-.278 1.138 1.138 0 0 0-.01-.282 2.166 2.166 0 0 0-.126-.464 2.194 2.194 0 0 1-.127-.46l.11-.08.07.053.116-.017c-.036-.066-.093-.1-.17-.12a.66.66 0 0 0-.212-.006v-.023c-.007-.053-.05-.096-.123-.143a.716.716 0 0 0-.243-.096 1.977 1.977 0 0 0-.27-.043.966.966 0 0 0-.193-.003c-.053.01-.083.026-.093.056a.193.193 0 0 0-.007.09.259.259 0 0 1-.006.09c-.01.029-.044.046-.113.055a.056.056 0 0 1-.04-.003.197.197 0 0 0-.064 0l.01.057c.01.07-.003.139-.04.218-.04.08-.066.133-.086.163l.093.65-.026.242c.02.162.063.335.11.517.056.19.126.348.216.487zm2.645-10.02c.14.14.276.289.406.454.13.16.206.322.23.481l.01.057a.346.346 0 0 1-.004.139c-.007.03-.01.06-.007.086.004.027.044.043.11.063l.083.59.077.11.156 1.084c-.026.003-.046.083-.05.239a6.057 6.057 0 0 1-.036.507 3.515 3.515 0 0 1-.1.507c-.043.15-.12.24-.226.249l.076.113a.194.194 0 0 1-.06.149c-.036.03-.073.063-.106.093a.714.714 0 0 0-.097.106c-.026.04-.036.093-.023.176 0 .013.057.08.166.205.117.123.237.265.366.421.127.156.257.309.376.461.123.15.197.262.22.342l.066.046c.087.136.154.285.2.444.04.166.073.325.093.481.017.093.027.18.03.269.007.083.01.172.01.272l.083.162-.093.196.07.07c.003.026.023.099.057.202.036.11.056.179.06.205l-.05.067.043.295c.06.424.04.839-.053 1.256a6.104 6.104 0 0 1-.406 1.18 11.408 11.408 0 0 1-.652.544c-.16.123-.3.236-.436.332-.137.1-.203.153-.22.153-.013-.103-.05-.153-.103-.146-.05.01-.08.046-.087.113l-.046.07a1.193 1.193 0 0 0-.396.115c-.12.053-.246.093-.38.113a.495.495 0 0 1-.212-.003.72.72 0 0 0-.21 0c-.066.01-.103.026-.116.05a.069.069 0 0 1-.054.033c-.066.01-.106.006-.12-.01-.016-.014-.06-.02-.126-.014a.47.47 0 0 0-.193.06.308.308 0 0 1-.153.05c-.066.01-.106.006-.123-.01-.017-.02-.057-.027-.12-.017-.096.017-.153.033-.176.057-.023.023-.083.043-.173.056a.555.555 0 0 1-.183-.007.56.56 0 0 0-.183-.003c-.067.01-.103.027-.123.05-.017.02-.06.036-.123.043l-.18.026.053-.066-.063.01a.064.064 0 0 0-.053.037.07.07 0 0 1-.053.036l-.06.01-.067-.053-.42.063a.172.172 0 0 1-.112.133.753.753 0 0 1-.18.05c-.383.052-.715.03-1.001-.064-.28-.093-.446-.331-.5-.713-.016-.09-.013-.152.004-.179a.297.297 0 0 0 .01-.142.233.233 0 0 0-.043-.086.154.154 0 0 1-.044-.083c-.01-.083-.006-.133.017-.163s.03-.08.02-.146a.63.63 0 0 0-.11-.222 1.165 1.165 0 0 1-.02-.199c0-.043.03-.1.087-.176a.415.415 0 0 1-.163-.278l.043-.126-.063-.05-.02-.116a.943.943 0 0 0-.057-.172c-.03-.093-.05-.15-.053-.18.04-.003.053-.046.043-.122a5.363 5.363 0 0 0-.133-.643 4.882 4.882 0 0 1-.123-.587c-.013-.09.003-.163.053-.21l-.113-.765.053-.073-.086-.162-.04-.296.106-.08-.006-.059c-.007-.026-.027-.033-.064-.02-.036.014-.063-.016-.073-.08l-.016-.119.086-.252-.136-.102a.244.244 0 0 1 .026-.113c.017-.05.04-.08.07-.08l-.133-.063-.017-.116a.251.251 0 0 0-.02-.083.468.468 0 0 1-.023-.073c-.016-.102.023-.179.113-.219-.09-.04-.136-.122-.156-.238a3.968 3.968 0 0 1-.017-.19c0-.056-.01-.122-.016-.185a.414.414 0 0 0-.113-.249l-.164-1.12-.076-.113c-.003-.023 0-.063.003-.123a.719.719 0 0 0 .014-.199l.033-.185-.067-.05-.113-.77c.067-.01.097-.072.083-.198-.01-.13-.02-.226-.03-.289l-.133-.106.05-.063-.093-.229-.093-.65.05-.07-.143-.155-.007-.063a.634.634 0 0 1 .037-.206.753.753 0 0 1 .09-.192l-.074-.05-.006-.06c-.007-.052.02-.082.09-.092a.223.223 0 0 1 .066 0 .294.294 0 0 0 .077 0c-.007-.027-.014-.057-.024-.09-.013-.03-.046-.043-.096-.033-.014 0-.023.007-.03.01-.007.007-.02.013-.047.017.167-.13.3-.23.386-.305.093-.073.226-.14.406-.196.18-.063.46-.123.829-.19.376-.065.941-.152 1.69-.258.41-.056.762-.106 1.058-.142.296-.033.462-.043.49-.037a1.05 1.05 0 0 1 .252-.073c.303-.043.522-.05.669-.016.146.033.263.076.342.12.08.052.154.095.21.132.06.04.163.05.306.03l-.016.023c.006.026.063.043.173.056.103.007.166.027.166.056l.436.501zM40.24 37.917c-.02.033-.043.01-.07-.073-.022-.086-.05-.182-.076-.289a2.382 2.382 0 0 0-.086-.278c-.03-.076-.053-.106-.063-.086l.016-.19a.836.836 0 0 1-.063-.261.522.522 0 0 0-.136-.305 1.93 1.93 0 0 1 .26-.043c.056.003.089 0 .102 0-.003-.014-.033-.044-.093-.08a7.913 7.913 0 0 1-.293-.242.074.074 0 0 1 .017-.063c.017-.013.017-.06 0-.12l-.07-.046.103-.086-.016-.06c-.057-.026-.097-.1-.117-.225a.902.902 0 0 0-.046-.226l-.077-.04-.08-.354-.116-.216-.01-.06a1.878 1.878 0 0 1-.037-.265 1.877 1.877 0 0 0-.036-.268.069.069 0 0 0-.017-.04.069.069 0 0 1-.02-.033c-.003-.027.013-.067.056-.116a.579.579 0 0 1-.1-.067c-.033-.026-.056-.073-.073-.139a.525.525 0 0 1-.013-.086c0-.033.03-.073.09-.116l-.073-.043c-.024-.09-.043-.193-.07-.309-.03-.116-.067-.182-.11-.202l.027-.13.13.03a.076.076 0 0 0 .046-.02.072.072 0 0 1 .027-.016c.013-.003.02-.01.016-.02-.006-.026-.053-.046-.133-.053-.086-.006-.146-.033-.186-.08-.027-.115-.053-.215-.07-.294a.877.877 0 0 1-.01-.299l-.113-.222a7.508 7.508 0 0 0-.117-.438c-.043-.165-.053-.298-.026-.404l-.097-.16c-.006-.026.007-.069.044-.122.033-.056.063-.09.09-.096a.318.318 0 0 1-.177 0c-.05-.017-.083-.05-.1-.12-.026-.112-.016-.179.027-.199.043-.016.086-.063.14-.142-.07-.01-.113-.03-.13-.063a.546.546 0 0 1-.047-.196c-.003-.043.007-.073.037-.076l-.19-.262.09-.146-.183-.262.04-.076a1.367 1.367 0 0 0-.203-.47 1.29 1.29 0 0 1-.203-.472 1.015 1.015 0 0 1-.02-.292c0-.132.047-.205.14-.228l-.13-.034-.053-.474.06-.016-.03-.113c-.077.017-.12.007-.13-.033 0-.013 0-.053.003-.12a.747.747 0 0 0-.03-.245c-.016-.06-.05-.159-.11-.295-.06-.136-.103-.202-.126-.196l-.14-.583.147-.156-.133-.027c-.04-.006-.067-.02-.07-.046a.247.247 0 0 1 .056-.239.723.723 0 0 1 .233-.179 1.67 1.67 0 0 1 .31-.122c.11-.034.193-.06.26-.073.259-.06.565-.126.918-.186.359-.066.652-.123.881-.18.157-.036.26-.069.31-.092.086-.023.176.03.263.16.086.132.136.228.15.291.05.206.066.405.05.603-.014.196.003.395.056.6l.07.044c.003.026.033.102.086.229.05.122.073.195.08.222a.931.931 0 0 0-.033.112.333.333 0 0 1-.037.093c.014.063.05.136.11.216.063.08.1.156.113.215.033.143.007.259-.083.338a.377.377 0 0 0-.14.272c.017-.033.06-.04.127-.02a.42.42 0 0 0 .18.01c-.007.04 0 .083.013.116.016.04-.01.067-.09.087.09-.023.15.006.183.09a.967.967 0 0 1 .06.155c-.014.046-.027.083-.034.11a.254.254 0 0 1-.04.092c.02.08.074.146.174.206.073.312.12.554.143.733.02.179.06.384.116.616l-.176.04c.013 0 .03.004.056.01.02.01.044.017.073.023l.074.04c.016.07.01.13-.017.192l.087.1c.03.076.033.14.013.192-.023.05-.043.093-.06.126l.13.03c.04.183.093.352.146.507.063.16.117.339.163.548.01.023.01.082.013.182.004.093.007.152.014.176l.16.149-.03.13.176.755-.1.083c.03.023.083.083.153.182.07.097.113.16.12.186a.96.96 0 0 1 .01.18c.003.095.007.155.013.182l.01.06c-.02.02-.01.059.047.132.05.066.08.136.096.199l-.103.086c.04.046.077.073.1.08.03.006.06.006.083 0 .03-.007.05 0 .077.013.023.016.043.05.056.096.004.03.007.053.004.073 0 .023.003.053.013.09l.173-.044-.07-.043a.298.298 0 0 1 .186-.023c.05.017.11.013.173 0 .26-.063.496-.126.702-.199.213-.07.463-.14.762-.209.044.057.143.106.303.146.156.033.246.086.263.15.01.04-.037.092-.136.165-.1.073-.147.12-.14.143.003.013.01.02.023.016l.08-.016a.516.516 0 0 0 .09-.033c.04-.017.086-.03.136-.044.014-.003.03.03.057.1.023.07.046.156.07.259.033.142.06.271.073.394.016.116.003.18-.037.19.014.069.037.105.06.119.027.016.043.07.07.159.013.066.003.11-.03.139-.033.03-.04.09-.017.176.01.066.054.1.114.11.063.006.106.052.13.142.016.08.04.126.053.149.02.023.036.033.05.03.013-.004.026-.004.04-.01.013-.004.026.016.033.053.013.066-.007.156-.07.275-.063.116-.123.18-.19.196-.036.01-.066-.027-.086-.1l-.346.08c.003.026.006.063.013.11.003.046-.007.075-.03.079l-.193-.014c-.156.037-.25.06-.286.073-.04.017-.09.047-.167.093h-.262l-.253.06c-.133.03-.26.066-.4.096-.133.03-.252.063-.356.096-.103.03-.15.06-.143.083a.981.981 0 0 1-.266.02c-.106 0-.156.003-.156.017l-.103.086a1.243 1.243 0 0 1-.363.023c-.14-.007-.34.02-.596.083-.12.017-.252.063-.399.146a1.62 1.62 0 0 1-.412.169.572.572 0 0 1-.376-.033 1.116 1.116 0 0 1-.303-.239l-.143-.086zM48.861 35.968c-.017-.054-.02-.073-.013-.077.006-.003.016-.02.033-.056-.01.02-.03.033-.07.046a.196.196 0 0 1-.19-.04.403.403 0 0 1-.136-.188c-.047-.136-.017-.252.093-.342a.298.298 0 0 1-.283-.225c-.023-.017-.016-.06.02-.13a.6.6 0 0 1-.076-.06.372.372 0 0 1-.047-.106l.113-.106c-.006-.026-.046-.08-.11-.169-.066-.093-.11-.136-.133-.126-.05-.219-.103-.434-.16-.65a10.297 10.297 0 0 0-.199-.656.758.758 0 0 0-.116-.216 1.781 1.781 0 0 1-.18-.42.153.153 0 0 1 .033-.167c.047-.053.067-.092.06-.112-.003-.014-.073-.02-.196-.02-.06-.176-.127-.382-.203-.604-.08-.225-.14-.358-.196-.394a.503.503 0 0 0-.017-.23c-.02-.062-.04-.132-.067-.208l-.04-.113-.096-.282c-.007-.026-.027-.082-.06-.179a3.513 3.513 0 0 1-.086-.298c-.03-.1-.054-.192-.074-.279-.023-.082-.026-.129-.013-.132l-.19-.375v-.192a.983.983 0 0 0-.103-.206.428.428 0 0 1-.07-.113l.107-.116a.542.542 0 0 1-.17-.106c-.066-.053-.106-.09-.113-.12-.053-.162-.076-.264-.063-.314.013-.043-.004-.13-.047-.255-.006-.024-.023-.053-.043-.09-.017-.04-.037-.086-.06-.15.013-.046.033-.075.053-.089.027-.016.034-.033.02-.063-.006-.026-.053-.053-.153-.092-.03-.09-.053-.18-.076-.279a.371.371 0 0 1 .09-.295l-.17-.07a.477.477 0 0 1-.063-.408c.043-.145.06-.232.05-.258-.007-.027-.077-.013-.2.03l-.41-1.21c.02-.034.034-.05.05-.057.01-.007.007-.033-.01-.08-.006-.026-.043-.06-.11-.1a.43.43 0 0 1-.139-.198l-.013-.056c-.014-.037 0-.06.033-.073-.06.02-.113-.01-.153-.083a5.229 5.229 0 0 1-.073-.156 1.123 1.123 0 0 1-.04-.524.615.615 0 0 1 .256-.45c.253-.087.522-.177.809-.27.292-.099.562-.192.818-.275.256-.086.483-.165.685-.238.197-.077.333-.143.416-.193l.114-.1.02.054c.073-.023.18-.047.316-.063.133-.017.19-.007.176.023a.999.999 0 0 1 .373-.209c.1-.03.203-.063.312-.093a4.43 4.43 0 0 0 .772-.275.911.911 0 0 0 .32-.265c.003.01.043.02.116.03l.246.036c.087.013.177.023.26.03l.173.013.273.435.579 1.714c.006.023-.014.063-.07.106l-.063.066.093.093-.073.15c-.047.099-.097.159-.134.172l-.868.292c.02.063.017.099-.003.116-.024.013-.047.026-.073.036-.087.027-.147.033-.174.027-.02-.014-.066-.01-.13.01a.82.82 0 0 0-.216.102.873.873 0 0 1-.236.11c-.076.026-.15.046-.213.06a3.126 3.126 0 0 1-.322.056l.08.04a1.778 1.778 0 0 0-.446.358.441.441 0 0 0-.114.477l.114-.04c.03.087.056.2.083.322.03.123.06.242.103.352a.984.984 0 0 0 .196.37c.083.104.216.134.4.104l-.037.073.136.02c.376-.126.782-.26 1.221-.398.436-.143.862-.266 1.275-.375.03.003.07.033.126.083l.167.186c.056.072.11.149.156.222.046.076.076.132.09.169.036.113.056.239.063.388.01.142.033.272.07.384l.073.037.296.869a.313.313 0 0 1-.046.301c-.07.087-.157.156-.263.222-.107.06-.22.12-.346.17-.123.043-.217.09-.293.129.026.073.023.116-.02.13a.455.455 0 0 0-.32-.05c-.126.023-.259.056-.399.099-.136.05-.293.1-.459.156-.173.056-.24.142-.2.255a.596.596 0 0 1-.242.073c-.064 0-.14.007-.23.027l-.06.08c.04-.014.073-.014.107.006.016.006.036.01.046.003.027.08.01.176-.05.292l.56 1.661c.136-.02.259-.016.375-.003.12.02.256.016.403-.007.01.05.11.06.28.023.169-.036.362-.09.575-.162.216-.073.422-.146.635-.219.203-.08.356-.133.46-.166.2-.07.362-.093.489-.083a.608.608 0 0 1 .3.11c.072.06.139.139.185.245.05.103.094.206.13.325.033.11.067.216.097.308a.78.78 0 0 1 0 .352c.026-.013.05.01.07.053.023.053.04.09.046.116.013.02.017.05.02.076 0 .027-.03.053-.093.073.07 0 .113.01.126.02.01.013.024.05.044.11.026.076.056.175.093.295.03.122.05.248.063.378a.86.86 0 0 1-.057.364.398.398 0 0 1-.262.236l-.546.182c-.24.083-.532.18-.872.295a59.8 59.8 0 0 0-1.065.365c-.372.13-.738.255-1.108.381-.372.123-.702.236-.988.332-.263.086-.479.16-.642.212-.163.057-.29.09-.376.096-.09.01-.153 0-.2-.03a.257.257 0 0 1-.096-.135"/>
    </g>
</svg>
