<svg xmlns="http://www.w3.org/2000/svg" width="20" height="20" viewBox="0 0 20 20">
    <path fill="#443737" fill-rule="nonzero" d="M10 0C4.5 0 0 4.5 0 10s4.5 10 10 10 10-4.5 10-10S15.5 0 10 0zm1.2 14.8c-1.5 0-2.302-1.3-2.302-1.3 0 1.102-1.796 4.5-2.296 5.5 0 0-.102.102-.204-.102 0-.699.204-2.597 1.204-7.097C7.8 10 7.5 9.398 7.5 8.699c0-1.699.898-2 1.398-2 .704 0 1.704.301 1.704 1.403C10.602 9.398 9.5 9.8 9.5 9.8s-.102.3-.2 1.3c-.1.899.302 2 1.802 2C13.602 13.102 14 9.7 14 8.7c0-1.3-1-3.898-3.898-3.898-4 0-4.602 3.5-4.602 4.5 0 .398.102 1.097.2 1.398.698.102.698 1.102.402 1.403-.403.296-2.204.699-2.204-3.301C3.898 5 7.301 3 10.301 3c2.8 0 5.898 2 5.898 5.7-.097 3.5-2.5 6.1-5 6.1z"/>
</svg>
